<svg width="32" height="32" viewBox="0 0 32 32" xmlns="http://www.w3.org/2000/svg" xmlns:xlink="http://www.w3.org/1999/xlink" overflow="hidden"><path d="M20.649 21.349C20.713 21.353 20.782 21.361 20.851 21.361 21.828 21.362 22.806 21.356 23.783 21.366 23.997 21.368 24.061 21.295 24.05 21.09 24.036 20.823 24.047 20.555 24.047 20.225L27.328 22.639 24.047 25.055 24.047 24.23C24.047 23.898 24.047 23.897 23.724 23.897L4.982 23.897C4.68 23.897 4.68 23.897 4.68 23.593 4.68 22.934 4.689 22.275 4.675 21.617 4.67 21.403 4.739 21.355 4.944 21.356 8.303 21.362 11.662 21.367 15.021 21.358 16.743 21.353 18.102 20.64 19.001 19.156 20.623 16.476 18.932 12.966 15.824 12.514 13.424 12.165 11.193 13.776 10.786 16.217 10.743 16.471 10.74 16.732 10.715 17.038L11.867 16.882 10.009 20.474 7.217 17.597C7.446 17.559 7.75 17.515 8.051 17.452 8.108 17.44 8.192 17.348 8.19 17.295 8.16948 16.6586 8.22047 16.022 8.342 15.397 8.346 15.378 8.337 15.356 8.331 15.319 7.72493 15.2202 7.14818 14.9887 6.642 14.641 5.388 13.773 4.732 12.158 5.04 10.686 5.375 9.082 6.585 7.883 8.149 7.587 9.163 7.396 10.103 7.578 10.976 8.114 11.13 8.209 11.224 8.223 11.325 8.058 11.384 7.961 11.473 7.883 11.575 7.765L11.939 9.235C11.979 9.396 12.01 9.56 12.057 9.719 12.108 9.891 12.056 9.968 11.874 9.956 11.348 9.92 10.821 9.888 10.295 9.853 10.165 9.844 10.036 9.83 9.869 9.814L10.246 9.342C9.97473 9.14107 9.65737 9.01145 9.323 8.965 7.9567 8.73078 6.65921 9.64851 6.42499 11.0148 6.3968 11.1793 6.38507 11.3462 6.39 11.513 6.414 12.737 7.446 13.831 8.665 13.935 8.823 13.948 8.878 13.868 8.939 13.75 9.803 12.092 11.104 10.92 12.874 10.31 16.969 8.898 21.244 11.428 22.033 15.569 22.422 17.608 21.979 19.47 20.742 21.139 20.7083 21.1856 20.6766 21.2336 20.647 21.283 20.641 21.292 20.649 21.31 20.654 21.348Z" fill="#F4B183"/></svg>