<svg width="77" height="78" xmlns="http://www.w3.org/2000/svg" xmlns:xlink="http://www.w3.org/1999/xlink" overflow="hidden"><defs><clipPath id="clip0"><rect x="347" y="321" width="77" height="78"/></clipPath><clipPath id="clip1"><rect x="348" y="322" width="75" height="76"/></clipPath><clipPath id="clip2"><rect x="348" y="322" width="75" height="76"/></clipPath><clipPath id="clip3"><rect x="348" y="322" width="584" height="76"/></clipPath><linearGradient x1="34.609" y1="15.3363" x2="18.983" y2="30.9623" gradientUnits="userSpaceOnUse" spreadMethod="pad" id="fill4"><stop offset="0" stop-color="#0052CC"/><stop offset="0.18" stop-color="#0052CC"/><stop offset="1" stop-color="#2684FF"/></linearGradient><linearGradient x1="38.7453" y1="60.2261" x2="54.3414" y2="44.6301" gradientUnits="userSpaceOnUse" spreadMethod="pad" id="fill5"><stop offset="0" stop-color="#0052CC"/><stop offset="0.18" stop-color="#0052CC"/><stop offset="1" stop-color="#2684FF"/></linearGradient></defs><g clip-path="url(#clip0)" transform="translate(-347 -321)"><g clip-path="url(#clip1)"><g clip-path="url(#clip2)"><g clip-path="url(#clip3)"><path d="M109.182 8.99196 117.095 8.99196 117.095 49.156C117.095 59.7965 112.439 67.1399 101.529 67.1399 98.3028 67.1888 95.0921 66.6818 92.0377 65.6413L92.0377 57.9482C94.6431 58.9583 97.416 59.4668 100.21 59.4468 106.894 59.4468 109.202 55.4504 109.202 49.6856Z" fill="#253858" transform="matrix(1 0 0 1.00144 348 322.099)"/><path d="M131.512 5.90472C134.231 5.71016 136.593 7.75653 136.788 10.4754 136.804 10.71 136.804 10.9454 136.788 11.18 136.788 14.0935 134.426 16.4553 131.512 16.4553 128.599 16.4553 126.237 14.0935 126.237 11.18 126.043 8.4611 128.089 6.09928 130.808 5.90472 131.042 5.88793 131.278 5.88793 131.512 5.90472ZM127.646 22.7896 135.209 22.7896 135.209 66.7503 127.646 66.7503Z" fill="#253858" transform="matrix(1 0 0 1.00144 348 322.099)"/><path d="M146.629 22.7796 154.012 22.7796 154.012 30.5127C156.56 25.3273 161.006 21.6307 169.578 22.1602L169.578 29.5436C159.907 28.5445 154.012 31.4818 154.012 40.7935L154.012 66.7703 146.629 66.7703Z" fill="#253858" transform="matrix(1 0 0 1.00144 348 322.099)"/><path d="M205.007 58.8274C202.189 64.6322 196.914 67.6195 190.15 67.6195 178.46 67.6195 172.566 57.6884 172.566 44.76 172.566 32.3611 178.72 21.9004 191.029 21.9004 197.443 21.9004 202.369 24.7978 205.017 30.5127L205.017 22.7796 212.58 22.7796 212.58 66.7403 205.017 66.7403ZM192.168 60.5858C198.942 60.5858 205.007 56.2797 205.007 46.5184L205.007 42.9616C205.007 33.2003 199.472 28.8942 193.017 28.8942 184.485 28.8942 180.089 34.5191 180.089 44.72 180.129 55.3105 184.345 60.5858 192.178 60.5858Z" fill="#253858" transform="matrix(1 0 0 1.00144 348 322.099)"/><path d="M257.32 67.6195C246.15 67.6195 240.964 65.4215 236.478 63.1335L236.478 55.0508C241.844 57.8682 250.106 59.8864 257.749 59.8864 266.452 59.8864 269.739 56.4595 269.739 51.3541 269.739 46.2486 266.572 43.5311 255.581 40.8934 242.593 37.7263 236.768 33.2403 236.768 23.7488 236.768 14.7568 243.622 8.10275 257.08 8.10275 265.433 8.10275 270.798 10.101 274.754 12.319L274.754 20.2319C269.254 17.2012 263.048 15.6842 256.77 15.8358 249.207 15.8358 244.721 18.4735 244.721 23.7488 244.721 28.4945 248.418 30.8724 258.609 33.4201 270.828 36.4974 277.692 40.4139 277.692 50.8245 277.632 60.8456 271.657 67.6195 257.32 67.6195Z" fill="#253858" transform="matrix(1 0 0 1.00144 348 322.099)"/><path d="M284.316 44.67C284.316 31.4818 292.049 21.9004 305.237 21.9004 318.425 21.9004 325.988 31.4818 325.988 44.67 325.988 57.8582 318.335 67.6495 305.237 67.6495 292.139 67.6495 284.316 57.8582 284.316 44.67ZM291.699 44.67C291.699 53.0226 295.835 60.5858 305.237 60.5858 314.639 60.5858 318.605 53.0226 318.605 44.67 318.605 36.3175 314.559 28.9741 305.237 28.9741 295.915 28.9741 291.739 36.3175 291.739 44.67Z" fill="#253858" transform="matrix(1 0 0 1.00144 348 322.099)"/><path d="M345.241 22.7796 356.581 22.7796 356.581 29.7734 345.241 29.7734 345.241 66.7403 337.858 66.7403 337.858 29.7734 330.704 29.7734 330.704 22.7796 337.828 22.7796 337.828 17.9839C337.828 9.81122 342.404 4.26618 351.815 4.26618 353.538 4.25658 355.254 4.49206 356.911 4.96556L356.911 11.9593C355.346 11.6618 353.757 11.5146 352.165 11.5197 347.509 11.5197 345.171 14.2473 345.171 18.2037Z" fill="#253858" transform="matrix(1 0 0 1.00144 348 322.099)"/><path d="M382.168 59.3569C383.767 59.3092 385.357 59.1017 386.914 58.7375L386.914 66.0309C385.257 66.505 383.542 66.7405 381.818 66.7303 372.407 66.7303 367.831 61.1953 367.831 53.0126L367.831 29.8133 360.677 29.8133 360.677 22.8196 367.801 22.8196 367.801 13.458 375.184 13.458 375.184 22.7796 386.874 22.7796 386.874 29.7734 375.184 29.7734 375.184 52.8527C375.224 56.7193 377.512 59.3569 382.168 59.3569Z" fill="#253858" transform="matrix(1 0 0 1.00144 348 322.099)"/><path d="M389.032 22.7796 397.385 22.7796 410.043 60.0563 422.872 22.7796 430.085 22.7796 442.924 60.0563 455.592 22.7796 463.945 22.7796 447.77 66.7403 438.098 66.7403 430.535 45.4693 426.538 31.9314 422.542 45.4693 414.879 66.7403 405.208 66.7403Z" fill="#253858" transform="matrix(1 0 0 1.00144 348 322.099)"/><path d="M498.484 58.8274C495.667 64.6322 490.391 67.6195 483.627 67.6195 471.938 67.6195 466.043 57.6884 466.043 44.76 466.043 32.3611 472.198 21.9004 484.507 21.9004 490.921 21.9004 495.846 24.7978 498.494 30.5127L498.494 22.7796 506.057 22.7796 506.057 66.7403 498.494 66.7403ZM485.646 60.5858C492.42 60.5858 498.484 56.2797 498.484 46.5184L498.484 42.9616C498.484 33.2003 492.949 28.8942 486.495 28.8942 478.002 28.9741 473.576 34.5591 473.576 44.76 473.576 55.3105 477.823 60.5858 485.656 60.5858Z" fill="#253858" transform="matrix(1 0 0 1.00144 348 322.099)"/><path d="M517.477 22.7796 524.861 22.7796 524.861 30.5127C527.408 25.3273 531.854 21.6307 540.427 22.1602L540.427 29.5436C530.755 28.5445 524.861 31.4818 524.861 40.7935L524.861 66.7703 517.477 66.7703Z" fill="#253858" transform="matrix(1 0 0 1.00144 348 322.099)"/><path d="M567.063 67.6195C550.617 67.6195 543.414 58.128 543.414 44.6401 543.414 31.3619 550.797 21.8704 564.165 21.8704 577.703 21.8704 583.148 31.282 583.148 44.6401L583.148 48.067 551.067 48.067C552.126 55.5403 556.962 60.376 567.333 60.376 571.893 60.3718 576.418 59.567 580.701 57.9981L580.701 64.9919C577.094 66.9401 571.549 67.6195 567.063 67.6195ZM550.977 41.6428 575.485 41.6428C575.046 33.4701 571.349 28.8042 563.796 28.8042 555.813 28.7643 551.766 33.9696 550.977 41.5928Z" fill="#253858" transform="matrix(1 0 0 1.00144 348 322.099)"/><path d="M72.3353 35.728 39.7644 3.15718 36.6073 0 36.6073 0 12.0892 24.5181 12.0892 24.5181 0.879214 35.728C-0.289555 36.8983-0.289555 38.794 0.879214 39.9643L23.2792 62.3642 36.6073 75.6923 61.1253 51.1742 61.505 50.7946 72.3353 39.9643C73.5041 38.794 73.5041 36.8983 72.3353 35.728ZM36.6073 49.0361 25.4173 37.8461 36.6073 26.6562 47.7972 37.8461Z" fill="#2684FF" transform="matrix(1 0 0 1.00144 348 322.099)"/><path d="M36.6073 26.6562C29.2809 19.3289 29.2452 7.46111 36.5273 0.0899199L12.0392 24.568 25.3673 37.8961 36.6073 26.6562Z" fill="url(#fill4)" transform="matrix(1 0 0 1.00144 348 322.099)"/><path d="M47.8272 37.8162 36.6073 49.0361C43.9682 56.3927 43.9717 68.3235 36.6152 75.6844 36.6125 75.687 36.6099 75.6897 36.6073 75.6923L36.6073 75.6923 61.1553 51.1443Z" fill="url(#fill5)" transform="matrix(1 0 0 1.00144 348 322.099)"/></g></g></g></g></svg>