<?xml version="1.0" encoding="UTF-8"?>
<svg xmlns="http://www.w3.org/2000/svg" xmlns:xlink="http://www.w3.org/1999/xlink" width="375pt" height="374.999991pt" viewBox="0 0 375 374.999991" version="1.2">
<defs>
<clipPath id="clip1">
  <path d="M 43.355469 63.992188 L 339.605469 63.992188 L 339.605469 213 L 43.355469 213 Z M 43.355469 63.992188 "/>
</clipPath>
<clipPath id="clip2">
  <path d="M 43.355469 211 L 339.605469 211 L 339.605469 359.492188 L 43.355469 359.492188 Z M 43.355469 211 "/>
</clipPath>
<clipPath id="clip3">
  <path d="M 5 30 L 367 30 L 367 233.097656 L 5 233.097656 Z M 5 30 "/>
</clipPath>
</defs>
<g id="surface1">
<g clip-path="url(#clip1)" clip-rule="nonzero">
<path style=" stroke:none;fill-rule:nonzero;fill:rgb(100%,100%,100%);fill-opacity:1;" d="M 91.503906 100.792969 L 104.074219 135.386719 C 104.046875 135.417969 104.03125 135.453125 104.003906 135.484375 L 104.097656 135.769531 C 98.8125 141.539062 94.058594 147.902344 89.953125 154.835938 L 52.097656 153.808594 C 51.347656 155.511719 50.582031 157.210938 49.898438 158.929688 C 48.972656 161.265625 48.117188 163.601562 47.320312 165.960938 C 46.519531 168.320312 45.769531 170.714844 45.097656 173.089844 C 44.496094 175.21875 43.972656 177.339844 43.472656 179.476562 L 74.441406 200.21875 C 74.40625 200.558594 74.429688 200.90625 74.394531 201.246094 L 74.609375 201.390625 C 74.253906 205.007812 74.132812 208.625 74.132812 212.230469 L 142.140625 212.230469 C 142.15625 210.058594 142.332031 207.882812 142.644531 205.746094 C 142.953125 203.609375 143.410156 201.5 144.003906 199.429688 C 144.601562 197.359375 145.332031 195.328125 146.203125 193.355469 C 147.078125 191.378906 148.097656 189.464844 149.238281 187.613281 C 150.378906 185.761719 151.640625 183.972656 153.039062 182.277344 C 154.4375 180.582031 155.980469 178.980469 157.625 177.46875 C 159.273438 175.957031 161.023438 174.53125 162.910156 173.234375 C 164.792969 171.9375 166.816406 170.746094 168.929688 169.695312 C 170.4375 168.941406 171.949219 168.292969 173.492188 167.707031 C 175.039062 167.121094 176.605469 166.601562 178.179688 166.175781 C 179.75 165.753906 181.324219 165.414062 182.910156 165.148438 C 183.65625 165.023438 184.410156 164.976562 185.15625 164.882812 C 185.410156 164.851562 185.664062 164.816406 185.921875 164.789062 C 186.507812 164.726562 187.101562 164.613281 187.6875 164.574219 C 188.265625 164.535156 188.835938 164.570312 189.410156 164.550781 C 190.0625 164.523438 190.714844 164.503906 191.367188 164.5 C 191.726562 164.503906 192.085938 164.46875 192.445312 164.476562 C 192.707031 164.484375 192.96875 164.515625 193.234375 164.527344 C 194.546875 164.570312 195.863281 164.6875 197.175781 164.835938 C 202.816406 165.476562 208.453125 167.023438 213.808594 169.695312 C 230.722656 178.121094 240.441406 194.851562 240.550781 212.230469 L 308.628906 212.230469 C 308.628906 208.609375 308.464844 204.972656 308.105469 201.34375 L 339.457031 180.339844 C 339.449219 180.296875 339.417969 180.261719 339.410156 180.21875 C 338.863281 177.828125 338.265625 175.445312 337.59375 173.066406 C 336.921875 170.691406 336.191406 168.320312 335.394531 165.960938 C 334.597656 163.601562 333.742188 161.265625 332.8125 158.929688 C 332.140625 157.230469 331.40625 155.539062 330.664062 153.855469 L 293.097656 154.886719 C 292.847656 154.460938 292.542969 154.0625 292.285156 153.640625 L 292.046875 153.640625 C 290.207031 150.613281 288.246094 147.6875 286.167969 144.882812 C 284.085938 142.082031 281.894531 139.394531 279.597656 136.824219 L 292.355469 101.75 C 291.25 100.785156 290.144531 99.8125 289.011719 98.882812 C 287.125 97.328125 285.207031 95.8125 283.253906 94.359375 C 281.296875 92.90625 279.296875 91.503906 277.277344 90.148438 C 275.261719 88.792969 273.214844 87.480469 271.136719 86.226562 C 270.542969 85.867188 269.949219 85.515625 269.34375 85.171875 L 239.519531 107.636719 C 239.085938 107.445312 238.640625 107.320312 238.207031 107.132812 L 238.136719 107.183594 C 234.84375 105.78125 231.480469 104.550781 228.074219 103.449219 C 224.667969 102.351562 221.222656 101.398438 217.726562 100.605469 L 217.679688 100.484375 C 217.664062 100.480469 217.648438 100.464844 217.632812 100.460938 L 206.902344 64.816406 C 205.394531 64.660156 203.902344 64.472656 202.386719 64.359375 C 199.949219 64.179688 197.496094 64.089844 195.050781 64.023438 C 193.414062 63.984375 191.769531 63.996094 190.125 64 C 189.304688 64.011719 188.484375 63.980469 187.664062 64 C 185.21875 64.066406 182.789062 64.179688 180.351562 64.359375 C 179.578125 64.417969 178.808594 64.53125 178.035156 64.597656 L 167.328125 100.101562 C 159.558594 101.707031 151.980469 104.066406 144.699219 107.160156 L 114.589844 84.503906 C 113.582031 85.082031 112.570312 85.625 111.578125 86.226562 C 109.5 87.480469 107.453125 88.792969 105.4375 90.148438 C 103.417969 91.503906 101.417969 92.90625 99.460938 94.359375 C 97.507812 95.8125 95.589844 97.328125 93.703125 98.882812 C 92.953125 99.5 92.242188 100.160156 91.503906 100.796875 Z M 230.511719 130.867188 C 231.550781 130.9375 232.605469 131.210938 233.59375 131.703125 C 237.539062 133.667969 239.117188 138.417969 237.105469 142.277344 C 235.09375 146.136719 230.25 147.664062 226.304688 145.699219 C 222.359375 143.730469 220.78125 139.007812 222.792969 135.148438 C 224.300781 132.253906 227.390625 130.648438 230.511719 130.867188 Z M 116.664062 167.0625 C 117.703125 167.132812 118.757812 167.40625 119.746094 167.898438 C 123.691406 169.863281 125.269531 174.589844 123.257812 178.449219 C 121.246094 182.308594 116.402344 183.835938 112.457031 181.871094 C 108.511719 179.902344 106.933594 175.179688 108.945312 171.320312 C 110.453125 168.425781 113.542969 166.84375 116.664062 167.0625 Z M 116.664062 167.0625 "/>
</g>
<g clip-path="url(#clip2)" clip-rule="nonzero">
<path style=" stroke:none;fill-rule:nonzero;fill:rgb(100%,100%,100%);fill-opacity:1;" d="M 291.425781 322.691406 L 278.855469 288.101562 C 278.882812 288.070312 278.898438 288.03125 278.925781 288.003906 L 278.832031 287.71875 C 284.117188 281.949219 288.871094 275.585938 292.976562 268.648438 L 330.832031 269.679688 C 331.582031 267.976562 332.347656 266.277344 333.027344 264.558594 C 333.957031 262.21875 334.8125 259.886719 335.609375 257.523438 C 336.410156 255.164062 337.160156 252.773438 337.832031 250.398438 C 338.433594 248.265625 338.957031 246.148438 339.457031 244.007812 L 308.488281 223.265625 C 308.523438 222.925781 308.5 222.578125 308.535156 222.238281 L 308.320312 222.09375 C 308.675781 218.480469 308.796875 214.863281 308.796875 211.257812 L 240.789062 211.257812 C 240.773438 213.429688 240.59375 215.605469 240.285156 217.742188 C 239.976562 219.878906 239.519531 221.984375 238.925781 224.054688 C 238.328125 226.128906 237.597656 228.15625 236.726562 230.132812 C 235.851562 232.109375 234.832031 234.023438 233.691406 235.875 C 232.550781 237.726562 231.289062 239.511719 229.890625 241.210938 C 228.492188 242.90625 226.949219 244.507812 225.300781 246.019531 C 223.65625 247.53125 221.90625 248.953125 220.019531 250.253906 C 218.136719 251.550781 216.113281 252.738281 214 253.792969 C 212.492188 254.546875 210.980469 255.191406 209.433594 255.777344 C 207.890625 256.367188 206.324219 256.886719 204.75 257.308594 C 203.179688 257.734375 201.605469 258.074219 200.019531 258.339844 C 199.273438 258.464844 198.519531 258.511719 197.773438 258.601562 C 197.519531 258.632812 197.265625 258.667969 197.007812 258.699219 C 196.421875 258.757812 195.828125 258.871094 195.242188 258.914062 C 194.664062 258.953125 194.09375 258.917969 193.519531 258.9375 C 192.867188 258.964844 192.214844 258.980469 191.558594 258.984375 C 191.203125 258.984375 190.84375 259.019531 190.484375 259.007812 C 190.222656 259.003906 189.960938 258.972656 189.695312 258.960938 C 188.382812 258.917969 187.066406 258.796875 185.753906 258.648438 C 180.109375 258.011719 174.476562 256.460938 169.121094 253.792969 C 152.207031 245.363281 142.488281 228.632812 142.382812 211.257812 L 74.296875 211.257812 C 74.300781 214.875 74.464844 218.511719 74.824219 222.144531 L 43.472656 243.148438 C 43.480469 243.1875 43.511719 243.226562 43.519531 243.265625 C 44.0625 245.65625 44.664062 248.042969 45.335938 250.421875 C 46.007812 252.796875 46.734375 255.164062 47.535156 257.523438 C 48.332031 259.886719 49.1875 262.21875 50.113281 264.558594 C 50.789062 266.257812 51.523438 267.949219 52.265625 269.632812 L 89.832031 268.601562 C 90.082031 269.027344 90.386719 269.425781 90.644531 269.847656 L 90.882812 269.847656 C 92.722656 272.871094 94.679688 275.796875 96.761719 278.601562 C 98.839844 281.40625 101.035156 284.089844 103.332031 286.664062 L 90.570312 321.734375 C 91.679688 322.703125 92.78125 323.671875 93.917969 324.605469 C 95.804688 326.15625 97.722656 327.671875 99.675781 329.128906 C 101.632812 330.582031 103.632812 331.984375 105.652344 333.339844 C 107.667969 334.695312 109.714844 336.007812 111.792969 337.261719 C 112.386719 337.621094 112.980469 337.972656 113.585938 338.3125 L 143.40625 315.851562 C 143.839844 316.042969 144.285156 316.167969 144.722656 316.351562 L 144.792969 316.304688 C 148.085938 317.707031 151.449219 318.9375 154.851562 320.035156 C 158.257812 321.136719 161.703125 322.089844 165.203125 322.882812 L 165.25 323.003906 C 165.265625 323.007812 165.28125 323.023438 165.296875 323.027344 L 176.027344 358.671875 C 177.535156 358.828125 179.027344 359.015625 180.542969 359.128906 C 182.976562 359.308594 185.429688 359.398438 187.878906 359.460938 C 189.515625 359.503906 191.160156 359.492188 192.800781 359.488281 C 193.625 359.476562 194.441406 359.507812 195.261719 359.488281 C 197.710938 359.421875 200.140625 359.304688 202.574219 359.128906 C 203.351562 359.070312 204.121094 358.957031 204.894531 358.886719 L 215.597656 323.386719 C 223.367188 321.78125 230.949219 319.421875 238.230469 316.328125 L 268.339844 338.984375 C 269.34375 338.40625 270.355469 337.863281 271.351562 337.261719 C 273.429688 336.007812 275.472656 334.695312 277.492188 333.339844 C 279.511719 331.984375 281.511719 330.582031 283.464844 329.128906 C 285.421875 327.671875 287.339844 326.15625 289.226562 324.605469 C 289.976562 323.988281 290.6875 323.328125 291.425781 322.691406 Z M 152.417969 292.621094 C 151.378906 292.550781 150.324219 292.273438 149.335938 291.785156 C 145.390625 289.816406 143.8125 285.070312 145.824219 281.210938 C 147.832031 277.351562 152.675781 275.820312 156.625 277.789062 C 160.570312 279.753906 162.148438 284.480469 160.136719 288.339844 C 158.628906 291.234375 155.539062 292.835938 152.417969 292.621094 Z M 266.265625 256.425781 C 265.226562 256.351562 264.171875 256.078125 263.183594 255.585938 C 259.238281 253.621094 257.660156 248.898438 259.671875 245.039062 C 261.679688 241.179688 266.527344 239.648438 270.472656 241.617188 C 274.417969 243.582031 275.996094 248.308594 273.984375 252.167969 C 272.476562 255.0625 269.386719 256.640625 266.265625 256.425781 Z M 266.265625 256.425781 "/>
</g>
<path style=" stroke:none;fill-rule:nonzero;fill:rgb(100%,100%,100%);fill-opacity:1;" d="M 191.617188 139.550781 C 152.320312 139.550781 120.246094 171.625 120.246094 210.96875 C 120.246094 250.308594 152.320312 282.417969 191.617188 282.417969 C 230.914062 282.417969 262.957031 250.308594 262.957031 210.96875 C 262.957031 171.625 230.914062 139.550781 191.617188 139.550781 Z M 191.617188 155.855469 C 222.097656 155.855469 246.667969 180.453125 246.667969 210.96875 C 246.667969 241.484375 222.097656 266.109375 191.617188 266.109375 C 161.132812 266.109375 136.535156 241.484375 136.535156 210.96875 C 136.535156 180.453125 161.132812 155.855469 191.617188 155.855469 Z M 191.617188 155.855469 "/>
<path style=" stroke:none;fill-rule:nonzero;fill:rgb(100%,100%,100%);fill-opacity:1;" d="M 191.617188 141.949219 C 153.625 141.949219 122.667969 172.9375 122.667969 210.972656 C 122.667969 249.007812 153.625 279.996094 191.617188 279.996094 C 229.609375 279.996094 260.53125 249.007812 260.53125 210.972656 C 260.53125 172.9375 229.609375 141.949219 191.617188 141.949219 Z M 191.617188 153.433594 C 223.402344 153.433594 249.089844 179.148438 249.089844 210.972656 C 249.089844 242.792969 223.402344 268.507812 191.617188 268.507812 C 159.828125 268.507812 134.144531 242.792969 134.144531 210.972656 C 134.144531 179.148438 159.828125 153.433594 191.617188 153.433594 Z M 191.617188 153.433594 "/>
<g clip-path="url(#clip3)" clip-rule="nonzero">
<path style=" stroke:none;fill-rule:nonzero;fill:rgb(42.349243%,84.309387%,85.099792%);fill-opacity:1;" d="M 5.320312 152.875 C 5.320312 182.359375 29.28125 206.257812 58.84375 206.257812 C 59.878906 206.257812 60.910156 206.257812 62.015625 206.183594 C 67.914062 205.816406 73.589844 204.566406 78.824219 202.433594 C 82.066406 206.257812 85.605469 209.789062 89.441406 213.023438 C 104.332031 225.523438 123.574219 233.097656 144.585938 233.097656 C 163.015625 233.097656 180.121094 227.289062 194.128906 217.363281 C 198.257812 218.757812 202.535156 219.789062 206.882812 220.523438 C 211.601562 221.332031 216.394531 221.699219 221.332031 221.699219 C 236.816406 221.699219 251.339844 217.582031 263.945312 210.449219 C 269.402344 207.359375 274.414062 203.683594 279.058594 199.492188 C 288.273438 206.921875 299.996094 211.40625 312.75 211.40625 C 333.613281 211.40625 351.675781 199.492188 360.523438 182.140625 C 364.210938 174.859375 366.273438 166.699219 366.273438 158.019531 C 366.273438 128.535156 342.316406 104.636719 312.75 104.636719 C 312.53125 104.636719 312.308594 104.636719 312.085938 104.636719 C 306.558594 62.5 270.582031 30 226.9375 30 C 199.289062 30 174.664062 43.089844 159.035156 63.382812 C 154.316406 62.574219 149.527344 62.207031 144.585938 62.207031 C 114.359375 62.207031 87.820312 77.796875 72.558594 101.328125 C 68.207031 100.148438 63.5625 99.5625 58.84375 99.5625 C 30.386719 99.5625 7.089844 121.695312 5.394531 149.710938 C 5.394531 150.742188 5.320312 151.769531 5.320312 152.875 Z M 5.320312 152.875 "/>
</g>
</g>
</svg>
